<mxfile host="www.draw.io" modified="2020-01-20T06:27:17.811Z" agent="Mozilla/5.0 (Windows NT 10.0; Win64; x64) AppleWebKit/537.36 (KHTML, like Gecko) Chrome/75.0.3770.142 Safari/537.36" etag="BuG1hENgPL0nORhx1lRD" version="12.5.5" type="github">
  <diagram id="ZD6iDLEAlcpxwZYoUndJ" name="第 1 页">
    <mxGraphModel dx="1038" dy="548" grid="1" gridSize="10" guides="1" tooltips="1" connect="1" arrows="1" fold="1" page="1" pageScale="1" pageWidth="827" pageHeight="1169" math="0" shadow="0">
      <root>
        <mxCell id="0"/>
        <mxCell id="1" parent="0"/>
        <mxCell id="HsdTkdyJSHu2GWfG8qsn-1" value="" style="rounded=0;whiteSpace=wrap;html=1;" vertex="1" parent="1">
          <mxGeometry x="210" y="130" width="260" height="340" as="geometry"/>
        </mxCell>
        <mxCell id="HsdTkdyJSHu2GWfG8qsn-2" value="hdfs客户端" style="text;html=1;strokeColor=none;fillColor=none;align=center;verticalAlign=middle;whiteSpace=wrap;rounded=0;" vertex="1" parent="1">
          <mxGeometry x="300" y="140" width="80" height="20" as="geometry"/>
        </mxCell>
        <mxCell id="HsdTkdyJSHu2GWfG8qsn-11" style="edgeStyle=orthogonalEdgeStyle;rounded=0;orthogonalLoop=1;jettySize=auto;html=1;entryX=1;entryY=0.5;entryDx=0;entryDy=0;" edge="1" parent="1" source="HsdTkdyJSHu2GWfG8qsn-3" target="HsdTkdyJSHu2GWfG8qsn-8">
          <mxGeometry relative="1" as="geometry"/>
        </mxCell>
        <mxCell id="HsdTkdyJSHu2GWfG8qsn-12" value="read" style="text;html=1;align=center;verticalAlign=middle;resizable=0;points=[];labelBackgroundColor=#ffffff;" vertex="1" connectable="0" parent="HsdTkdyJSHu2GWfG8qsn-11">
          <mxGeometry x="0.1578" y="-1" relative="1" as="geometry">
            <mxPoint as="offset"/>
          </mxGeometry>
        </mxCell>
        <mxCell id="HsdTkdyJSHu2GWfG8qsn-28" style="edgeStyle=orthogonalEdgeStyle;rounded=0;orthogonalLoop=1;jettySize=auto;html=1;entryX=0.5;entryY=0;entryDx=0;entryDy=0;" edge="1" parent="1" source="HsdTkdyJSHu2GWfG8qsn-3" target="HsdTkdyJSHu2GWfG8qsn-27">
          <mxGeometry relative="1" as="geometry"/>
        </mxCell>
        <mxCell id="HsdTkdyJSHu2GWfG8qsn-3" value="" style="rounded=0;whiteSpace=wrap;html=1;" vertex="1" parent="1">
          <mxGeometry x="280" y="180" width="120" height="90" as="geometry"/>
        </mxCell>
        <mxCell id="HsdTkdyJSHu2GWfG8qsn-4" value="DFSInputStream" style="text;html=1;strokeColor=none;fillColor=none;align=center;verticalAlign=middle;whiteSpace=wrap;rounded=0;" vertex="1" parent="1">
          <mxGeometry x="320" y="190" width="40" height="20" as="geometry"/>
        </mxCell>
        <mxCell id="HsdTkdyJSHu2GWfG8qsn-5" value="文件对应的blocks" style="rounded=0;whiteSpace=wrap;html=1;" vertex="1" parent="1">
          <mxGeometry x="295" y="210" width="90" height="50" as="geometry"/>
        </mxCell>
        <mxCell id="HsdTkdyJSHu2GWfG8qsn-19" style="edgeStyle=orthogonalEdgeStyle;rounded=0;orthogonalLoop=1;jettySize=auto;html=1;entryX=0.5;entryY=0;entryDx=0;entryDy=0;" edge="1" parent="1" source="HsdTkdyJSHu2GWfG8qsn-8" target="HsdTkdyJSHu2GWfG8qsn-13">
          <mxGeometry relative="1" as="geometry"/>
        </mxCell>
        <mxCell id="HsdTkdyJSHu2GWfG8qsn-20" value="write" style="text;html=1;align=center;verticalAlign=middle;resizable=0;points=[];labelBackgroundColor=#ffffff;" vertex="1" connectable="0" parent="HsdTkdyJSHu2GWfG8qsn-19">
          <mxGeometry x="-0.248" y="1" relative="1" as="geometry">
            <mxPoint as="offset"/>
          </mxGeometry>
        </mxCell>
        <mxCell id="HsdTkdyJSHu2GWfG8qsn-8" value="应用系统（如云盘系统）" style="rounded=0;whiteSpace=wrap;html=1;" vertex="1" parent="1">
          <mxGeometry x="20" y="192.5" width="80" height="65" as="geometry"/>
        </mxCell>
        <mxCell id="HsdTkdyJSHu2GWfG8qsn-13" value="" style="rounded=0;whiteSpace=wrap;html=1;" vertex="1" parent="1">
          <mxGeometry x="20" y="310" width="80" height="120" as="geometry"/>
        </mxCell>
        <mxCell id="HsdTkdyJSHu2GWfG8qsn-14" value="磁盘文件" style="text;html=1;strokeColor=none;fillColor=none;align=center;verticalAlign=middle;whiteSpace=wrap;rounded=0;" vertex="1" parent="1">
          <mxGeometry x="35" y="320" width="50" height="20" as="geometry"/>
        </mxCell>
        <mxCell id="HsdTkdyJSHu2GWfG8qsn-15" value="block" style="rounded=0;whiteSpace=wrap;html=1;" vertex="1" parent="1">
          <mxGeometry x="40" y="350" width="40" height="20" as="geometry"/>
        </mxCell>
        <mxCell id="HsdTkdyJSHu2GWfG8qsn-16" value="block" style="rounded=0;whiteSpace=wrap;html=1;" vertex="1" parent="1">
          <mxGeometry x="40" y="370" width="40" height="20" as="geometry"/>
        </mxCell>
        <mxCell id="HsdTkdyJSHu2GWfG8qsn-17" value="block" style="rounded=0;whiteSpace=wrap;html=1;" vertex="1" parent="1">
          <mxGeometry x="40" y="390" width="40" height="20" as="geometry"/>
        </mxCell>
        <mxCell id="HsdTkdyJSHu2GWfG8qsn-24" style="edgeStyle=orthogonalEdgeStyle;rounded=0;orthogonalLoop=1;jettySize=auto;html=1;entryX=1;entryY=0.5;entryDx=0;entryDy=0;" edge="1" parent="1" source="HsdTkdyJSHu2GWfG8qsn-21" target="HsdTkdyJSHu2GWfG8qsn-3">
          <mxGeometry relative="1" as="geometry"/>
        </mxCell>
        <mxCell id="HsdTkdyJSHu2GWfG8qsn-25" value="初始化" style="text;html=1;align=center;verticalAlign=middle;resizable=0;points=[];labelBackgroundColor=#ffffff;" vertex="1" connectable="0" parent="HsdTkdyJSHu2GWfG8qsn-24">
          <mxGeometry x="0.6511" relative="1" as="geometry">
            <mxPoint as="offset"/>
          </mxGeometry>
        </mxCell>
        <mxCell id="HsdTkdyJSHu2GWfG8qsn-21" value="" style="rounded=0;whiteSpace=wrap;html=1;" vertex="1" parent="1">
          <mxGeometry x="580" y="195" width="120" height="60" as="geometry"/>
        </mxCell>
        <mxCell id="HsdTkdyJSHu2GWfG8qsn-22" value="namenode" style="text;html=1;strokeColor=none;fillColor=none;align=center;verticalAlign=middle;whiteSpace=wrap;rounded=0;" vertex="1" parent="1">
          <mxGeometry x="620" y="200" width="40" height="20" as="geometry"/>
        </mxCell>
        <mxCell id="HsdTkdyJSHu2GWfG8qsn-23" value="BlockManager" style="rounded=0;whiteSpace=wrap;html=1;" vertex="1" parent="1">
          <mxGeometry x="600" y="220" width="80" height="30" as="geometry"/>
        </mxCell>
        <mxCell id="HsdTkdyJSHu2GWfG8qsn-26" value="这个文件对应哪些blocks" style="text;html=1;strokeColor=none;fillColor=none;align=center;verticalAlign=middle;whiteSpace=wrap;rounded=0;" vertex="1" parent="1">
          <mxGeometry x="500" y="180" width="60" height="20" as="geometry"/>
        </mxCell>
        <mxCell id="HsdTkdyJSHu2GWfG8qsn-34" style="edgeStyle=orthogonalEdgeStyle;rounded=0;orthogonalLoop=1;jettySize=auto;html=1;entryX=0.5;entryY=0;entryDx=0;entryDy=0;" edge="1" parent="1" source="HsdTkdyJSHu2GWfG8qsn-27" target="HsdTkdyJSHu2GWfG8qsn-29">
          <mxGeometry relative="1" as="geometry"/>
        </mxCell>
        <mxCell id="HsdTkdyJSHu2GWfG8qsn-35" value="初始化" style="text;html=1;align=center;verticalAlign=middle;resizable=0;points=[];labelBackgroundColor=#ffffff;" vertex="1" connectable="0" parent="HsdTkdyJSHu2GWfG8qsn-34">
          <mxGeometry x="-0.7021" relative="1" as="geometry">
            <mxPoint as="offset"/>
          </mxGeometry>
        </mxCell>
        <mxCell id="HsdTkdyJSHu2GWfG8qsn-27" value="选择block以及对应的DataNode" style="rounded=0;whiteSpace=wrap;html=1;" vertex="1" parent="1">
          <mxGeometry x="280" y="300" width="120" height="40" as="geometry"/>
        </mxCell>
        <mxCell id="HsdTkdyJSHu2GWfG8qsn-29" value="" style="rounded=0;whiteSpace=wrap;html=1;" vertex="1" parent="1">
          <mxGeometry x="280" y="370" width="120" height="60" as="geometry"/>
        </mxCell>
        <mxCell id="HsdTkdyJSHu2GWfG8qsn-30" value="BlockReader" style="text;html=1;strokeColor=none;fillColor=none;align=center;verticalAlign=middle;whiteSpace=wrap;rounded=0;" vertex="1" parent="1">
          <mxGeometry x="320" y="380" width="40" height="20" as="geometry"/>
        </mxCell>
        <mxCell id="HsdTkdyJSHu2GWfG8qsn-31" value="PacketReceiver" style="rounded=0;whiteSpace=wrap;html=1;" vertex="1" parent="1">
          <mxGeometry x="290" y="400" width="100" height="20" as="geometry"/>
        </mxCell>
        <mxCell id="HsdTkdyJSHu2GWfG8qsn-32" style="edgeStyle=orthogonalEdgeStyle;rounded=0;orthogonalLoop=1;jettySize=auto;html=1;exitX=0;exitY=0.75;exitDx=0;exitDy=0;entryX=0;entryY=0.5;entryDx=0;entryDy=0;" edge="1" parent="1" source="HsdTkdyJSHu2GWfG8qsn-3" target="HsdTkdyJSHu2GWfG8qsn-31">
          <mxGeometry relative="1" as="geometry"/>
        </mxCell>
        <mxCell id="HsdTkdyJSHu2GWfG8qsn-33" value="read" style="text;html=1;align=center;verticalAlign=middle;resizable=0;points=[];labelBackgroundColor=#ffffff;" vertex="1" connectable="0" parent="HsdTkdyJSHu2GWfG8qsn-32">
          <mxGeometry x="0.0736" y="-1" relative="1" as="geometry">
            <mxPoint as="offset"/>
          </mxGeometry>
        </mxCell>
        <mxCell id="HsdTkdyJSHu2GWfG8qsn-36" value="" style="rounded=0;whiteSpace=wrap;html=1;" vertex="1" parent="1">
          <mxGeometry x="530" y="330" width="270" height="140" as="geometry"/>
        </mxCell>
        <mxCell id="HsdTkdyJSHu2GWfG8qsn-37" value="DataNode" style="text;html=1;strokeColor=none;fillColor=none;align=center;verticalAlign=middle;whiteSpace=wrap;rounded=0;" vertex="1" parent="1">
          <mxGeometry x="630" y="340" width="40" height="20" as="geometry"/>
        </mxCell>
        <mxCell id="HsdTkdyJSHu2GWfG8qsn-52" style="edgeStyle=orthogonalEdgeStyle;rounded=0;orthogonalLoop=1;jettySize=auto;html=1;exitX=1;exitY=0.5;exitDx=0;exitDy=0;" edge="1" parent="1" source="HsdTkdyJSHu2GWfG8qsn-40" target="HsdTkdyJSHu2GWfG8qsn-43">
          <mxGeometry relative="1" as="geometry"/>
        </mxCell>
        <mxCell id="HsdTkdyJSHu2GWfG8qsn-53" value="启动" style="text;html=1;align=center;verticalAlign=middle;resizable=0;points=[];labelBackgroundColor=#ffffff;" vertex="1" connectable="0" parent="HsdTkdyJSHu2GWfG8qsn-52">
          <mxGeometry x="-0.1556" relative="1" as="geometry">
            <mxPoint as="offset"/>
          </mxGeometry>
        </mxCell>
        <mxCell id="HsdTkdyJSHu2GWfG8qsn-40" value="DataXceiverServer" style="rounded=0;whiteSpace=wrap;html=1;" vertex="1" parent="1">
          <mxGeometry x="550" y="370" width="120" height="40" as="geometry"/>
        </mxCell>
        <mxCell id="HsdTkdyJSHu2GWfG8qsn-57" style="edgeStyle=orthogonalEdgeStyle;rounded=0;orthogonalLoop=1;jettySize=auto;html=1;entryX=0.5;entryY=1;entryDx=0;entryDy=0;" edge="1" parent="1" source="HsdTkdyJSHu2GWfG8qsn-41" target="HsdTkdyJSHu2GWfG8qsn-31">
          <mxGeometry relative="1" as="geometry"/>
        </mxCell>
        <mxCell id="HsdTkdyJSHu2GWfG8qsn-58" value="通过多个packet形式&lt;br&gt;来传输block" style="text;html=1;align=center;verticalAlign=middle;resizable=0;points=[];labelBackgroundColor=#ffffff;" vertex="1" connectable="0" parent="HsdTkdyJSHu2GWfG8qsn-57">
          <mxGeometry x="0.1491" relative="1" as="geometry">
            <mxPoint as="offset"/>
          </mxGeometry>
        </mxCell>
        <mxCell id="HsdTkdyJSHu2GWfG8qsn-41" value="packet" style="rounded=0;whiteSpace=wrap;html=1;" vertex="1" parent="1">
          <mxGeometry x="550" y="430" width="60" height="30" as="geometry"/>
        </mxCell>
        <mxCell id="HsdTkdyJSHu2GWfG8qsn-56" style="edgeStyle=orthogonalEdgeStyle;rounded=0;orthogonalLoop=1;jettySize=auto;html=1;entryX=1;entryY=0.5;entryDx=0;entryDy=0;" edge="1" parent="1" source="HsdTkdyJSHu2GWfG8qsn-42" target="HsdTkdyJSHu2GWfG8qsn-41">
          <mxGeometry relative="1" as="geometry"/>
        </mxCell>
        <mxCell id="HsdTkdyJSHu2GWfG8qsn-42" value="packet" style="rounded=0;whiteSpace=wrap;html=1;" vertex="1" parent="1">
          <mxGeometry x="630" y="430" width="60" height="30" as="geometry"/>
        </mxCell>
        <mxCell id="HsdTkdyJSHu2GWfG8qsn-55" style="edgeStyle=orthogonalEdgeStyle;rounded=0;orthogonalLoop=1;jettySize=auto;html=1;entryX=1;entryY=0.5;entryDx=0;entryDy=0;exitX=0.5;exitY=1;exitDx=0;exitDy=0;" edge="1" parent="1" source="HsdTkdyJSHu2GWfG8qsn-43" target="HsdTkdyJSHu2GWfG8qsn-42">
          <mxGeometry relative="1" as="geometry"/>
        </mxCell>
        <mxCell id="HsdTkdyJSHu2GWfG8qsn-43" value="BlockSender" style="rounded=0;whiteSpace=wrap;html=1;" vertex="1" parent="1">
          <mxGeometry x="710" y="370" width="80" height="40" as="geometry"/>
        </mxCell>
        <mxCell id="HsdTkdyJSHu2GWfG8qsn-46" style="edgeStyle=orthogonalEdgeStyle;rounded=0;orthogonalLoop=1;jettySize=auto;html=1;exitX=1;exitY=0.25;exitDx=0;exitDy=0;" edge="1" parent="1" source="HsdTkdyJSHu2GWfG8qsn-29" target="HsdTkdyJSHu2GWfG8qsn-40">
          <mxGeometry relative="1" as="geometry"/>
        </mxCell>
        <mxCell id="HsdTkdyJSHu2GWfG8qsn-47" value="建立socket连接&lt;br&gt;创建IO流" style="text;html=1;align=center;verticalAlign=middle;resizable=0;points=[];labelBackgroundColor=#ffffff;" vertex="1" connectable="0" parent="HsdTkdyJSHu2GWfG8qsn-46">
          <mxGeometry x="-0.1974" y="-1" relative="1" as="geometry">
            <mxPoint x="-12.33" y="-6" as="offset"/>
          </mxGeometry>
        </mxCell>
        <mxCell id="HsdTkdyJSHu2GWfG8qsn-50" style="edgeStyle=orthogonalEdgeStyle;rounded=0;orthogonalLoop=1;jettySize=auto;html=1;exitX=1;exitY=0.75;exitDx=0;exitDy=0;entryX=0;entryY=0.75;entryDx=0;entryDy=0;" edge="1" parent="1" source="HsdTkdyJSHu2GWfG8qsn-29" target="HsdTkdyJSHu2GWfG8qsn-40">
          <mxGeometry relative="1" as="geometry">
            <Array as="points">
              <mxPoint x="475" y="415"/>
              <mxPoint x="475" y="400"/>
            </Array>
          </mxGeometry>
        </mxCell>
        <mxCell id="HsdTkdyJSHu2GWfG8qsn-51" value="发送消息&lt;br&gt;read block" style="text;html=1;align=center;verticalAlign=middle;resizable=0;points=[];labelBackgroundColor=#ffffff;" vertex="1" connectable="0" parent="HsdTkdyJSHu2GWfG8qsn-50">
          <mxGeometry x="-0.0949" y="2" relative="1" as="geometry">
            <mxPoint as="offset"/>
          </mxGeometry>
        </mxCell>
        <mxCell id="HsdTkdyJSHu2GWfG8qsn-59" style="edgeStyle=orthogonalEdgeStyle;rounded=0;orthogonalLoop=1;jettySize=auto;html=1;exitX=0.25;exitY=1;exitDx=0;exitDy=0;entryX=0.75;entryY=1;entryDx=0;entryDy=0;" edge="1" parent="1" source="HsdTkdyJSHu2GWfG8qsn-31" target="HsdTkdyJSHu2GWfG8qsn-43">
          <mxGeometry relative="1" as="geometry">
            <Array as="points">
              <mxPoint x="315" y="490"/>
              <mxPoint x="770" y="490"/>
            </Array>
          </mxGeometry>
        </mxCell>
        <mxCell id="HsdTkdyJSHu2GWfG8qsn-60" value="读取block&lt;br&gt;状态：SUCCESS" style="text;html=1;align=center;verticalAlign=middle;resizable=0;points=[];labelBackgroundColor=#ffffff;" vertex="1" connectable="0" parent="HsdTkdyJSHu2GWfG8qsn-59">
          <mxGeometry x="-0.1481" y="-1" relative="1" as="geometry">
            <mxPoint as="offset"/>
          </mxGeometry>
        </mxCell>
        <mxCell id="HsdTkdyJSHu2GWfG8qsn-63" style="edgeStyle=orthogonalEdgeStyle;rounded=0;orthogonalLoop=1;jettySize=auto;html=1;exitX=0.75;exitY=0;exitDx=0;exitDy=0;entryX=0.91;entryY=1.005;entryDx=0;entryDy=0;entryPerimeter=0;" edge="1" parent="1" source="HsdTkdyJSHu2GWfG8qsn-61" target="HsdTkdyJSHu2GWfG8qsn-43">
          <mxGeometry relative="1" as="geometry"/>
        </mxCell>
        <mxCell id="HsdTkdyJSHu2GWfG8qsn-64" value="输入流" style="text;html=1;align=center;verticalAlign=middle;resizable=0;points=[];labelBackgroundColor=#ffffff;" vertex="1" connectable="0" parent="HsdTkdyJSHu2GWfG8qsn-63">
          <mxGeometry x="-0.232" y="-1" relative="1" as="geometry">
            <mxPoint y="15.99" as="offset"/>
          </mxGeometry>
        </mxCell>
        <mxCell id="HsdTkdyJSHu2GWfG8qsn-61" value="本地磁盘block文件" style="rounded=0;whiteSpace=wrap;html=1;" vertex="1" parent="1">
          <mxGeometry x="730" y="530" width="70" height="50" as="geometry"/>
        </mxCell>
      </root>
    </mxGraphModel>
  </diagram>
</mxfile>
